<svg xmlns="http://www.w3.org/2000/svg" viewBox="0 0 1600 1000" preserveAspectRatio="none">
  <defs>
    <linearGradient id="rearRibbon" x1="-120" y1="650" x2="1720" y2="630" gradientUnits="userSpaceOnUse">
      <stop offset="0" stop-color="#dff8ff" stop-opacity=".18" />
      <stop offset=".25" stop-color="#8dd9ff" stop-opacity=".34" />
      <stop offset=".48" stop-color="#668cf5" stop-opacity=".5" />
      <stop offset=".66" stop-color="#8d70f0" stop-opacity=".42" />
      <stop offset=".84" stop-color="#a9c9ff" stop-opacity=".3" />
      <stop offset="1" stop-color="#a9e1f5" stop-opacity=".24" />
    </linearGradient>
    <linearGradient id="middleRibbon" x1="-120" y1="750" x2="1720" y2="690" gradientUnits="userSpaceOnUse">
      <stop offset="0" stop-color="#dff7ff" stop-opacity=".1" />
      <stop offset=".26" stop-color="#81bfff" stop-opacity=".3" />
      <stop offset=".46" stop-color="#5e79e8" stop-opacity=".47" />
      <stop offset=".61" stop-color="#8254e9" stop-opacity=".54" />
      <stop offset=".77" stop-color="#8099f0" stop-opacity=".34" />
      <stop offset="1" stop-color="#9fdcf3" stop-opacity=".22" />
    </linearGradient>
    <linearGradient id="frontRibbon" x1="-120" y1="840" x2="1720" y2="760" gradientUnits="userSpaceOnUse">
      <stop offset="0" stop-color="#e9f7ff" stop-opacity=".2" />
      <stop offset=".24" stop-color="#c08af4" stop-opacity=".24" />
      <stop offset=".43" stop-color="#8f45e8" stop-opacity=".42" />
      <stop offset=".61" stop-color="#6c79e9" stop-opacity=".34" />
      <stop offset=".8" stop-color="#8fd6ff" stop-opacity=".22" />
      <stop offset="1" stop-color="#afe4f6" stop-opacity=".20" />
    </linearGradient>
    <radialGradient id="violetBloom">
      <stop stop-color="#873ce8" stop-opacity=".26" />
      <stop offset=".48" stop-color="#873ce8" stop-opacity=".12" />
      <stop offset="1" stop-color="#873ce8" stop-opacity="0" />
    </radialGradient>
    <radialGradient id="blueBloom">
      <stop stop-color="#57a8f6" stop-opacity=".24" />
      <stop offset=".5" stop-color="#57a8f6" stop-opacity=".11" />
      <stop offset="1" stop-color="#57a8f6" stop-opacity="0" />
    </radialGradient>
    <filter id="softCrest" x="-5%" y="-8%" width="110%" height="116%">
      <feGaussianBlur stdDeviation="9" />
    </filter>
  </defs>

  <ellipse cx="700" cy="820" rx="500" ry="250" fill="url(#violetBloom)" />
  <ellipse cx="1010" cy="760" rx="560" ry="260" fill="url(#blueBloom)" />

  <path
    d="M-120 704 C180 744 384 698 612 626 C824 558 1036 532 1228 576 C1410 618 1572 687 1720 646 L1720 1080 L-120 1080 Z"
    fill="url(#rearRibbon)"
    filter="url(#softCrest)"
  />
  <path
    d="M-120 774 C176 808 402 754 642 678 C842 616 1012 600 1194 622 C1402 648 1552 718 1720 698 L1720 1080 L-120 1080 Z"
    fill="url(#middleRibbon)"
  />
  <path
    d="M-120 848 C186 820 418 850 674 752 C866 680 1030 676 1248 724 C1460 770 1594 776 1720 746 L1720 1080 L-120 1080 Z"
    fill="url(#frontRibbon)"
  />
</svg>
